<svg xmlns="http://www.w3.org/2000/svg" width="900" height="520" viewBox="0 0 900 520">
  <defs>
    <linearGradient id="g" x1="0" x2="1" y1="0" y2="1">
      <stop stop-color="#0b6e63" offset="0"/>
      <stop stop-color="#1c8fb8" offset="1"/>
    </linearGradient>
  </defs>
  <rect width="900" height="520" fill="url(#g)"/>
  <circle cx="150" cy="110" r="70" fill="rgba(255,255,255,0.12)"/>
  <path d="M0 400 C160 460 300 360 480 410 C640 450 760 360 900 400 L900 520 L0 520 Z" fill="rgba(255,255,255,0.10)"/>
  <!-- flask icon -->
  <path d="M410 190 H 490 V 250 L 545 360 C 555 380 540 400 518 400 H 382 C 360 400 345 380 355 360 L 410 250 Z"
        fill="rgba(255,255,255,0.92)"/>
  <rect x="400" y="178" width="100" height="20" rx="6" fill="rgba(255,255,255,0.92)"/>
  <circle cx="450" cy="320" r="10" fill="rgba(11,110,99,0.5)"/>
  <circle cx="478" cy="345" r="7" fill="rgba(11,110,99,0.5)"/>
</svg>
